# MagicaVoxel @ Ephtracy

# group
o 

# material
mtllib Friendly Block Test.mtl
usemtl palette

# normals
vn -1 0 0
vn 1 0 0
vn 0 0 1
vn 0 0 -1
vn 0 -1 0
vn 0 1 0

# texcoords
vt 0.720703 0.5
vt 0.845703 0.5
vt 0.974609 0.5

# verts
v -2 0.7 1.6
v -2 0.7 1.4
v -2 0.8 1.7
v -2 0.8 1.6
v -2 0.8 1.4
v -2 0.8 1.3
v -2 0.9 1.7
v -2 0.9 1.6
v -2 0.9 1.4
v -2 0.9 1.3
v -2 1 1.6
v -2 1 1.4
v -1.9 0 1.9
v -1.9 0 1.1
v -1.9 0.7 1.6
v -1.9 0.7 1.4
v -1.9 0.8 1.7
v -1.9 0.8 1.6
v -1.9 0.8 1.4
v -1.9 0.8 1.3
v -1.9 0.9 1.9
v -1.9 0.9 1.7
v -1.9 0.9 1.3
v -1.9 0.9 1.1
v -1.7 0.8 2
v -1.7 0.8 1.9
v -1.7 0.8 1.1
v -1.7 0.8 1
v -1.7 0.9 2
v -1.7 0.9 1.9
v -1.7 0.9 1.1
v -1.7 0.9 1
v -1.6 0.7 2
v -1.6 0.7 1.9
v -1.6 0.7 1.1
v -1.6 0.7 1
v -1.6 0.8 2
v -1.6 0.8 1.9
v -1.6 0.8 1.1
v -1.6 0.8 1
v -1.6 0.9 2
v -1.6 0.9 1.9
v -1.6 0.9 1.1
v -1.6 0.9 1
v -1.6 1 2
v -1.6 1 1.9
v -1.6 1 1.1
v -1.6 1 1
v -1.1 0.9 1.6
v -1.1 0.9 1.4
v -1.1 1 1.6
v -1.1 1 1.4
v -1.9 0.9 1.6
v -1.9 0.9 1.4
v -1.9 1 1.6
v -1.9 1 1.4
v -1.4 0.7 2
v -1.4 0.7 1.9
v -1.4 0.7 1.1
v -1.4 0.7 1
v -1.4 0.8 2
v -1.4 0.8 1.9
v -1.4 0.8 1.1
v -1.4 0.8 1
v -1.4 0.9 2
v -1.4 0.9 1.9
v -1.4 0.9 1.1
v -1.4 0.9 1
v -1.4 1 2
v -1.4 1 1.9
v -1.4 1 1.1
v -1.4 1 1
v -1.3 0.8 2
v -1.3 0.8 1.9
v -1.3 0.8 1.1
v -1.3 0.8 1
v -1.3 0.9 2
v -1.3 0.9 1.9
v -1.3 0.9 1.1
v -1.3 0.9 1
v -1.1 0 1.9
v -1.1 0 1.1
v -1.1 0.7 1.6
v -1.1 0.7 1.4
v -1.1 0.8 1.7
v -1.1 0.8 1.6
v -1.1 0.8 1.4
v -1.1 0.8 1.3
v -1.1 0.9 1.9
v -1.1 0.9 1.7
v -1.1 0.9 1.3
v -1.1 0.9 1.1
v -1 0.7 1.6
v -1 0.7 1.4
v -1 0.8 1.7
v -1 0.8 1.6
v -1 0.8 1.4
v -1 0.8 1.3
v -1 0.9 1.7
v -1 0.9 1.6
v -1 0.9 1.4
v -1 0.9 1.3
v -1 1 1.6
v -1 1 1.4
v -1.7 0.8 2
v -1.7 0.9 2
v -1.6 0.7 2
v -1.6 0.8 2
v -1.6 0.9 2
v -1.6 1 2
v -1.4 0.7 2
v -1.4 0.8 2
v -1.4 0.9 2
v -1.4 1 2
v -1.3 0.8 2
v -1.3 0.9 2
v -1.9 0 1.9
v -1.9 0.9 1.9
v -1.7 0.8 1.9
v -1.7 0.9 1.9
v -1.6 0.7 1.9
v -1.6 0.8 1.9
v -1.4 0.7 1.9
v -1.4 0.8 1.9
v -1.3 0.8 1.9
v -1.3 0.9 1.9
v -1.1 0 1.9
v -1.1 0.9 1.9
v -2 0.8 1.7
v -2 0.9 1.7
v -1.9 0.8 1.7
v -1.9 0.9 1.7
v -1.1 0.8 1.7
v -1.1 0.9 1.7
v -1 0.8 1.7
v -1 0.9 1.7
v -2 0.7 1.6
v -2 0.8 1.6
v -2 0.9 1.6
v -2 1 1.6
v -1.9 0.7 1.6
v -1.9 0.8 1.6
v -1.9 0.9 1.6
v -1.9 1 1.6
v -1.1 0.7 1.6
v -1.1 0.8 1.6
v -1.1 0.9 1.6
v -1.1 1 1.6
v -1 0.7 1.6
v -1 0.8 1.6
v -1 0.9 1.6
v -1 1 1.6
v -1.6 0.9 1.1
v -1.6 1 1.1
v -1.4 0.9 1.1
v -1.4 1 1.1
v -1.6 0.9 1.9
v -1.6 1 1.9
v -1.4 0.9 1.9
v -1.4 1 1.9
v -2 0.7 1.4
v -2 0.8 1.4
v -2 0.9 1.4
v -2 1 1.4
v -1.9 0.7 1.4
v -1.9 0.8 1.4
v -1.9 0.9 1.4
v -1.9 1 1.4
v -1.1 0.7 1.4
v -1.1 0.8 1.4
v -1.1 0.9 1.4
v -1.1 1 1.4
v -1 0.7 1.4
v -1 0.8 1.4
v -1 0.9 1.4
v -1 1 1.4
v -2 0.8 1.3
v -2 0.9 1.3
v -1.9 0.8 1.3
v -1.9 0.9 1.3
v -1.1 0.8 1.3
v -1.1 0.9 1.3
v -1 0.8 1.3
v -1 0.9 1.3
v -1.9 0 1.1
v -1.9 0.9 1.1
v -1.7 0.8 1.1
v -1.7 0.9 1.1
v -1.6 0.7 1.1
v -1.6 0.8 1.1
v -1.4 0.7 1.1
v -1.4 0.8 1.1
v -1.3 0.8 1.1
v -1.3 0.9 1.1
v -1.1 0 1.1
v -1.1 0.9 1.1
v -1.7 0.8 1
v -1.7 0.9 1
v -1.6 0.7 1
v -1.6 0.8 1
v -1.6 0.9 1
v -1.6 1 1
v -1.4 0.7 1
v -1.4 0.8 1
v -1.4 0.9 1
v -1.4 1 1
v -1.3 0.8 1
v -1.3 0.9 1
v -1.9 0 1.9
v -1.1 0 1.9
v -1.9 0 1.1
v -1.1 0 1.1
v -1.6 0.7 2
v -1.4 0.7 2
v -1.6 0.7 1.9
v -1.4 0.7 1.9
v -2 0.7 1.6
v -1.9 0.7 1.6
v -1.1 0.7 1.6
v -1 0.7 1.6
v -2 0.7 1.4
v -1.9 0.7 1.4
v -1.1 0.7 1.4
v -1 0.7 1.4
v -1.6 0.7 1.1
v -1.4 0.7 1.1
v -1.6 0.7 1
v -1.4 0.7 1
v -1.7 0.8 2
v -1.6 0.8 2
v -1.4 0.8 2
v -1.3 0.8 2
v -1.7 0.8 1.9
v -1.6 0.8 1.9
v -1.4 0.8 1.9
v -1.3 0.8 1.9
v -2 0.8 1.7
v -1.9 0.8 1.7
v -1.1 0.8 1.7
v -1 0.8 1.7
v -2 0.8 1.6
v -1.9 0.8 1.6
v -1.1 0.8 1.6
v -1 0.8 1.6
v -2 0.8 1.4
v -1.9 0.8 1.4
v -1.1 0.8 1.4
v -1 0.8 1.4
v -2 0.8 1.3
v -1.9 0.8 1.3
v -1.1 0.8 1.3
v -1 0.8 1.3
v -1.7 0.8 1.1
v -1.6 0.8 1.1
v -1.4 0.8 1.1
v -1.3 0.8 1.1
v -1.7 0.8 1
v -1.6 0.8 1
v -1.4 0.8 1
v -1.3 0.8 1
v -1.7 0.9 2
v -1.6 0.9 2
v -1.4 0.9 2
v -1.3 0.9 2
v -1.9 0.9 1.9
v -1.7 0.9 1.9
v -1.6 0.9 1.9
v -1.4 0.9 1.9
v -1.3 0.9 1.9
v -1.1 0.9 1.9
v -1.8 0.9 1.8
v -1.2 0.9 1.8
v -2 0.9 1.7
v -1.9 0.9 1.7
v -1.7 0.9 1.7
v -1.3 0.9 1.7
v -1.1 0.9 1.7
v -1 0.9 1.7
v -2 0.9 1.6
v -1.9 0.9 1.6
v -1.1 0.9 1.6
v -1 0.9 1.6
v -2 0.9 1.4
v -1.9 0.9 1.4
v -1.1 0.9 1.4
v -1 0.9 1.4
v -2 0.9 1.3
v -1.9 0.9 1.3
v -1.7 0.9 1.3
v -1.3 0.9 1.3
v -1.1 0.9 1.3
v -1 0.9 1.3
v -1.8 0.9 1.2
v -1.2 0.9 1.2
v -1.9 0.9 1.1
v -1.7 0.9 1.1
v -1.6 0.9 1.1
v -1.4 0.9 1.1
v -1.3 0.9 1.1
v -1.1 0.9 1.1
v -1.7 0.9 1
v -1.6 0.9 1
v -1.4 0.9 1
v -1.3 0.9 1
v -1.6 1 2
v -1.4 1 2
v -1.6 1 1.9
v -1.4 1 1.9
v -2 1 1.6
v -1.9 1 1.6
v -1.1 1 1.6
v -1 1 1.6
v -2 1 1.4
v -1.9 1 1.4
v -1.1 1 1.4
v -1 1 1.4
v -1.6 1 1.1
v -1.4 1 1.1
v -1.6 1 1
v -1.4 1 1

# faces
f 4/2/1 2/2/1 1/2/1
f 5/2/1 2/2/1 4/2/1
f 7/2/1 4/2/1 3/2/1
f 7/2/1 6/2/1 5/2/1
f 7/2/1 5/2/1 4/2/1
f 8/2/1 6/2/1 7/2/1
f 9/2/1 6/2/1 8/2/1
f 10/2/1 6/2/1 9/2/1
f 11/2/1 9/2/1 8/2/1
f 12/2/1 9/2/1 11/2/1
f 15/3/1 14/3/1 13/3/1
f 16/3/1 14/3/1 15/3/1
f 17/3/1 15/3/1 13/3/1
f 18/3/1 15/3/1 17/3/1
f 19/3/1 14/3/1 16/3/1
f 20/3/1 14/3/1 19/3/1
f 21/3/1 17/3/1 13/3/1
f 22/3/1 17/3/1 21/3/1
f 23/3/1 14/3/1 20/3/1
f 24/3/1 14/3/1 23/3/1
f 29/2/1 26/2/1 25/2/1
f 30/2/1 26/2/1 29/2/1
f 31/2/1 28/2/1 27/2/1
f 32/2/1 28/2/1 31/2/1
f 37/2/1 34/2/1 33/2/1
f 38/2/1 34/2/1 37/2/1
f 39/2/1 36/2/1 35/2/1
f 40/2/1 36/2/1 39/2/1
f 45/2/1 42/2/1 41/2/1
f 46/2/1 42/2/1 45/2/1
f 47/2/1 44/2/1 43/2/1
f 48/2/1 44/2/1 47/2/1
f 51/2/1 50/2/1 49/2/1
f 52/2/1 50/2/1 51/2/1
f 53/2/2 54/2/2 55/2/2
f 55/2/2 54/2/2 56/2/2
f 57/2/2 58/2/2 61/2/2
f 61/2/2 58/2/2 62/2/2
f 59/2/2 60/2/2 63/2/2
f 63/2/2 60/2/2 64/2/2
f 65/2/2 66/2/2 69/2/2
f 69/2/2 66/2/2 70/2/2
f 67/2/2 68/2/2 71/2/2
f 71/2/2 68/2/2 72/2/2
f 73/2/2 74/2/2 77/2/2
f 77/2/2 74/2/2 78/2/2
f 75/2/2 76/2/2 79/2/2
f 79/2/2 76/2/2 80/2/2
f 81/3/2 82/3/2 83/3/2
f 83/3/2 82/3/2 84/3/2
f 81/3/2 83/3/2 85/3/2
f 85/3/2 83/3/2 86/3/2
f 84/3/2 82/3/2 87/3/2
f 87/3/2 82/3/2 88/3/2
f 81/3/2 85/3/2 89/3/2
f 89/3/2 85/3/2 90/3/2
f 88/3/2 82/3/2 91/3/2
f 91/3/2 82/3/2 92/3/2
f 93/2/2 94/2/2 96/2/2
f 96/2/2 94/2/2 97/2/2
f 95/2/2 96/2/2 99/2/2
f 97/2/2 98/2/2 99/2/2
f 96/2/2 97/2/2 99/2/2
f 99/2/2 98/2/2 100/2/2
f 100/2/2 98/2/2 101/2/2
f 101/2/2 98/2/2 102/2/2
f 100/2/2 101/2/2 103/2/2
f 103/2/2 101/2/2 104/2/2
f 108/2/3 106/2/3 105/2/3
f 109/2/3 106/2/3 108/2/3
f 111/2/3 108/2/3 107/2/3
f 111/2/3 110/2/3 109/2/3
f 111/2/3 109/2/3 108/2/3
f 112/2/3 110/2/3 111/2/3
f 113/2/3 110/2/3 112/2/3
f 114/2/3 110/2/3 113/2/3
f 115/2/3 113/2/3 112/2/3
f 116/2/3 113/2/3 115/2/3
f 119/3/3 118/3/3 117/3/3
f 120/3/3 118/3/3 119/3/3
f 121/3/3 119/3/3 117/3/3
f 122/3/3 119/3/3 121/3/3
f 123/3/3 121/3/3 117/3/3
f 125/3/3 124/3/3 123/3/3
f 127/3/3 125/3/3 123/3/3
f 127/3/3 126/3/3 125/3/3
f 127/3/3 123/3/3 117/3/3
f 128/3/3 126/3/3 127/3/3
f 131/2/3 130/2/3 129/2/3
f 132/2/3 130/2/3 131/2/3
f 135/2/3 134/2/3 133/2/3
f 136/2/3 134/2/3 135/2/3
f 141/2/3 138/2/3 137/2/3
f 142/2/3 138/2/3 141/2/3
f 143/2/3 140/2/3 139/2/3
f 144/2/3 140/2/3 143/2/3
f 149/2/3 146/2/3 145/2/3
f 150/2/3 146/2/3 149/2/3
f 151/2/3 148/2/3 147/2/3
f 152/2/3 148/2/3 151/2/3
f 155/2/3 154/2/3 153/2/3
f 156/2/3 154/2/3 155/2/3
f 157/2/4 158/2/4 159/2/4
f 159/2/4 158/2/4 160/2/4
f 161/2/4 162/2/4 165/2/4
f 165/2/4 162/2/4 166/2/4
f 163/2/4 164/2/4 167/2/4
f 167/2/4 164/2/4 168/2/4
f 169/2/4 170/2/4 173/2/4
f 173/2/4 170/2/4 174/2/4
f 171/2/4 172/2/4 175/2/4
f 175/2/4 172/2/4 176/2/4
f 177/2/4 178/2/4 179/2/4
f 179/2/4 178/2/4 180/2/4
f 181/2/4 182/2/4 183/2/4
f 183/2/4 182/2/4 184/2/4
f 185/3/4 186/3/4 187/3/4
f 187/3/4 186/3/4 188/3/4
f 185/3/4 187/3/4 189/3/4
f 189/3/4 187/3/4 190/3/4
f 185/3/4 189/3/4 191/3/4
f 191/3/4 192/3/4 193/3/4
f 191/3/4 193/3/4 195/3/4
f 193/3/4 194/3/4 195/3/4
f 185/3/4 191/3/4 195/3/4
f 195/3/4 194/3/4 196/3/4
f 197/2/4 198/2/4 200/2/4
f 200/2/4 198/2/4 201/2/4
f 199/2/4 200/2/4 203/2/4
f 201/2/4 202/2/4 203/2/4
f 200/2/4 201/2/4 203/2/4
f 203/2/4 202/2/4 204/2/4
f 204/2/4 202/2/4 205/2/4
f 205/2/4 202/2/4 206/2/4
f 204/2/4 205/2/4 207/2/4
f 207/2/4 205/2/4 208/2/4
f 211/3/5 210/3/5 209/3/5
f 212/3/5 210/3/5 211/3/5
f 215/2/5 214/2/5 213/2/5
f 216/2/5 214/2/5 215/2/5
f 221/2/5 218/2/5 217/2/5
f 222/2/5 218/2/5 221/2/5
f 223/2/5 220/2/5 219/2/5
f 224/2/5 220/2/5 223/2/5
f 227/2/5 226/2/5 225/2/5
f 228/2/5 226/2/5 227/2/5
f 233/2/5 230/2/5 229/2/5
f 234/2/5 230/2/5 233/2/5
f 235/2/5 232/2/5 231/2/5
f 236/2/5 232/2/5 235/2/5
f 241/2/5 238/2/5 237/2/5
f 242/2/5 238/2/5 241/2/5
f 243/2/5 240/2/5 239/2/5
f 244/2/5 240/2/5 243/2/5
f 249/2/5 246/2/5 245/2/5
f 250/2/5 246/2/5 249/2/5
f 251/2/5 248/2/5 247/2/5
f 252/2/5 248/2/5 251/2/5
f 257/2/5 254/2/5 253/2/5
f 258/2/5 254/2/5 257/2/5
f 259/2/5 256/2/5 255/2/5
f 260/2/5 256/2/5 259/2/5
f 261/2/6 262/2/6 266/2/6
f 266/2/6 262/2/6 267/2/6
f 263/2/6 264/2/6 268/2/6
f 268/2/6 264/2/6 269/2/6
f 266/3/6 267/3/6 271/3/6
f 269/3/6 270/3/6 271/3/6
f 268/3/6 269/3/6 271/3/6
f 267/3/6 268/3/6 271/3/6
f 265/3/6 266/3/6 271/3/6
f 271/3/6 270/3/6 272/3/6
f 265/3/6 271/3/6 274/3/6
f 271/1/6 272/1/6 275/1/6
f 275/1/6 272/1/6 276/1/6
f 272/3/6 270/3/6 277/3/6
f 273/2/6 274/2/6 279/2/6
f 274/3/6 271/3/6 280/3/6
f 279/2/6 274/2/6 280/2/6
f 277/2/6 278/2/6 281/2/6
f 272/3/6 277/3/6 281/3/6
f 281/2/6 278/2/6 282/2/6
f 280/3/6 271/3/6 284/3/6
f 272/3/6 281/3/6 285/3/6
f 283/2/6 284/2/6 287/2/6
f 284/3/6 271/3/6 288/3/6
f 287/2/6 284/2/6 288/2/6
f 271/1/6 275/1/6 289/1/6
f 275/3/6 276/3/6 289/3/6
f 276/1/6 272/1/6 290/1/6
f 289/3/6 276/3/6 290/3/6
f 285/2/6 286/2/6 291/2/6
f 272/3/6 285/3/6 291/3/6
f 291/2/6 286/2/6 292/2/6
f 271/1/6 289/1/6 293/1/6
f 288/3/6 271/3/6 293/3/6
f 289/1/6 290/1/6 293/1/6
f 290/1/6 272/1/6 294/1/6
f 293/1/6 290/1/6 294/1/6
f 272/3/6 291/3/6 294/3/6
f 288/3/6 293/3/6 295/3/6
f 293/3/6 294/3/6 295/3/6
f 295/3/6 294/3/6 296/3/6
f 296/3/6 294/3/6 297/3/6
f 297/3/6 294/3/6 298/3/6
f 298/3/6 294/3/6 299/3/6
f 294/3/6 291/3/6 300/3/6
f 299/3/6 294/3/6 300/3/6
f 296/2/6 297/2/6 301/2/6
f 301/2/6 297/2/6 302/2/6
f 298/2/6 299/2/6 303/2/6
f 303/2/6 299/2/6 304/2/6
f 305/2/6 306/2/6 307/2/6
f 307/2/6 306/2/6 308/2/6
f 309/2/6 310/2/6 313/2/6
f 313/2/6 310/2/6 314/2/6
f 311/2/6 312/2/6 315/2/6
f 315/2/6 312/2/6 316/2/6
f 317/2/6 318/2/6 319/2/6
f 319/2/6 318/2/6 320/2/6
